# xmcd
#
# Track frame offsets:
#	150
#	21668
#	42484
#	70249
#	93289
#	117089
#	146938
#	168915
#	197373
#	218326
#	250533
#
# Disc length: 3608 seconds
#
# Revision: 0
# Processed by: cddbd v1.5.1PL0 Copyright (c) Steve Scherf et al.
# Submitted via: dBpowerAMP V4.0
#
DISCID=940e160b
DTITLE=Tres Tangled Truckers - Pour House Live Disc2
DYEAR=2004
DGENRE=Trip-Hop
TTITLE0=IntroD2
TTITLE1=Caitlin Song
TTITLE2=The Magician 
TTITLE3=Let's Go Dancing
TTITLE4=Hold Onto Me
TTITLE5=Outfit
TTITLE6=Broken Hearts and Auto Parts
TTITLE7=Pony
TTITLE8=Crystal Clear
TTITLE9=40 Miles of Mountain Road
TTITLE10=I'm Staying Out
EXTD=
EXTT0=
EXTT1=
EXTT2=
EXTT3=
EXTT4=
EXTT5=
EXTT6=
EXTT7=
EXTT8=
EXTT9=
EXTT10=
PLAYORDER=
